<svg width="58" height="33" viewBox="0 0 58 33" fill="none" xmlns="http://www.w3.org/2000/svg">
<path d="M47.6311 -4.16359e-07L57.1562 16.5L38.1059 16.5L47.6311 -4.16359e-07Z" fill="#8C8A97"/>
<path d="M47.6311 33L57.1562 16.5L38.1059 16.5L47.6311 33Z" fill="#ACABB7"/>
<path d="M28.5805 33L47.6309 33L38.1057 16.5" fill="#4E4B59"/>
<path d="M28.5803 -4.16359e-07L19.0507 16.5L38.1055 16.5L28.5803 -4.16359e-07Z" fill="#8C8A97"/>
<path d="M38.1055 16.5L19.0507 16.5L28.5803 33L38.1055 16.5Z" fill="#ACABB7"/>
<path d="M28.582 0L9.52725 -8.32911e-07L19.0524 16.5L28.582 0Z" fill="#4E4B59"/>
<path d="M9.52755 -4.16359e-07L0.00237584 16.5L19.0527 16.5L9.52755 -4.16359e-07Z" fill="#ACABB7"/>
<path d="M19.0527 16.5L0.00237656 16.5L9.52755 33L19.0527 16.5Z" fill="#8C8A97"/>
</svg>
