<svg width="103" height="34" viewBox="0 0 103 34" fill="none" xmlns="http://www.w3.org/2000/svg">
<path d="M25.9628 11.7927H14.0794V15.3189H22.507C22.091 20.2641 17.9766 22.3723 14.0937 22.3723C9.12498 22.3723 4.79038 18.4628 4.79038 12.9844C4.79038 7.64672 8.92313 3.53641 14.1049 3.53641C18.1031 3.53641 20.459 6.08497 20.459 6.08497L22.928 3.52824C22.928 3.52824 19.7586 0 13.9795 0C6.62025 0 0.926758 6.21136 0.926758 12.9212C0.926758 19.4955 6.28282 25.9067 14.1681 25.9067C21.1032 25.9067 26.18 21.1561 26.18 14.1303C26.1779 12.649 25.9628 11.7927 25.9628 11.7927Z" fill="#8C8A97"/>
<path d="M35.6986 9.23907C30.8227 9.23907 27.3281 13.0507 27.3281 17.4974C27.3281 22.0094 30.7177 25.8924 35.7557 25.8924C40.3166 25.8924 44.0538 22.406 44.0538 17.5943C44.0538 12.0792 39.707 9.23907 35.6986 9.23907ZM35.7465 12.5094C38.1442 12.5094 40.4165 14.4483 40.4165 17.5718C40.4165 20.6291 38.1534 22.6231 35.7353 22.6231C33.0777 22.6231 30.9817 20.4945 30.9817 17.5474C30.9817 14.6634 33.0522 12.5094 35.7465 12.5094Z" fill="#8C8A97"/>
<path d="M53.9027 9.23907C49.0268 9.23907 45.5322 13.0507 45.5322 17.4974C45.5322 22.0094 48.9218 25.8924 53.9598 25.8924C58.5207 25.8924 62.2579 22.406 62.2579 17.5943C62.2579 12.0792 57.9111 9.23907 53.9027 9.23907ZM53.9517 12.5094C56.3493 12.5094 58.6216 14.4483 58.6216 17.5718C58.6216 20.6291 56.3585 22.6231 53.9404 22.6231C51.2828 22.6231 49.1869 20.4945 49.1869 17.5474C49.1869 14.6634 51.2573 12.5094 53.9517 12.5094Z" fill="#8C8A97"/>
<path d="M71.758 9.24825C67.2827 9.24825 63.7646 13.1679 63.7646 17.5678C63.7646 22.5793 67.8434 25.9026 71.6815 25.9026C74.0547 25.9026 75.3168 24.9606 76.2485 23.879V25.5213C76.2485 28.3941 74.5043 30.1139 71.8711 30.1139C69.3277 30.1139 68.0524 28.2228 67.6089 27.1494L64.4089 28.4869C65.5446 30.8876 67.8291 33.3903 71.8976 33.3903C76.3474 33.3903 79.7391 30.5869 79.7391 24.7089V9.74676H76.2475V11.1577C75.1751 10.0016 73.7071 9.24825 71.758 9.24825ZM72.0821 12.5114C74.277 12.5114 76.5299 14.3851 76.5299 17.5851C76.5299 20.8371 74.281 22.6302 72.0342 22.6302C69.6478 22.6302 67.4285 20.6923 67.4285 17.6167C67.4275 14.4198 69.7334 12.5114 72.0821 12.5114Z" fill="#8C8A97"/>
<path d="M95.2611 9.22786C91.0397 9.22786 87.4941 12.5869 87.4941 17.5433C87.4941 22.7883 91.4454 25.8985 95.6659 25.8985C99.189 25.8985 101.351 23.9708 102.642 22.2449L99.7629 20.3294C99.0157 21.4885 97.7669 22.6211 95.6832 22.6211C93.3426 22.6211 92.2661 21.3397 91.5994 20.098L102.764 15.4657L102.184 14.1079C101.108 11.4492 98.5906 9.22786 95.2611 9.22786ZM95.4069 12.4299C96.9279 12.4299 98.0228 13.2383 98.4876 14.2088L91.0316 17.3252C90.7104 14.9122 92.996 12.4299 95.4069 12.4299Z" fill="#8C8A97"/>
<path d="M82.1729 25.4041H85.8397V0.861452H82.1729V25.4041Z" fill="#8C8A97"/>
</svg>
