<svg width="107" height="25" viewBox="0 0 107 25" fill="none" xmlns="http://www.w3.org/2000/svg">
<path fill-rule="evenodd" clip-rule="evenodd" d="M0.931926 1.43187H7.75948C12.1198 1.43187 15.7116 3.94776 15.7116 9.69945V10.9129C15.7116 16.7131 12.3382 19.3179 7.88895 19.3179H0.923828V1.43187H0.931926ZM4.75018 4.6677V16.0416H7.67051C10.1459 16.0416 11.8043 14.4237 11.8043 10.832V9.88549C11.8043 6.29372 10.0488 4.6758 7.53295 4.6758H4.75018V4.6677ZM17.734 4.85375H20.7918L21.2852 8.22714C21.8677 5.93779 23.3562 4.72434 26.05 4.72434H26.9965V8.59118H25.4271C22.3288 8.59118 21.5604 9.66708 21.5604 12.7249V19.3746H17.7825V4.86185H17.734V4.85375ZM27.7569 12.4013V11.9969C27.7569 7.14311 30.8553 4.48976 35.0861 4.48976C39.3979 4.48976 42.4152 7.14311 42.4152 11.9969V12.4013C42.4152 17.1661 39.4949 19.7305 35.0861 19.7305C30.4103 19.682 27.7569 17.1661 27.7569 12.4013ZM38.5485 12.3528V11.9969C38.5485 9.30303 37.1975 7.6851 35.0456 7.6851C32.9342 7.6851 31.5429 9.16551 31.5429 11.9969V12.3528C31.5429 14.9576 32.8938 16.4461 35.0456 16.4461C37.1975 16.3976 38.5485 14.9657 38.5485 12.3528ZM44.3891 4.85375H47.536L47.8919 7.59613C48.6523 5.7517 50.2702 4.49785 52.6567 4.49785C56.3455 4.49785 58.7724 7.1512 58.7724 12.0454V12.4499C58.7724 17.2146 56.0785 19.7305 52.6567 19.7305C50.3673 19.7305 48.7899 18.6951 48.0294 17.0367V24.3659H44.3405L44.3891 4.85375ZM54.9461 12.3528V12.0373C54.9461 9.15741 53.4657 7.72559 51.4837 7.72559C49.3723 7.72559 47.9809 9.34347 47.9809 12.0373V12.3043C47.9809 14.8687 49.3318 16.4866 51.4432 16.4866C53.6031 16.4461 54.9461 15.0547 54.9461 12.3528ZM64.3381 16.6727L64.0226 19.326H60.7867V0H64.4755V7.41818C65.2845 5.53331 66.9025 4.49785 69.1918 4.49785C72.6542 4.54639 75.2104 6.92468 75.2104 11.7299V12.183C75.2104 16.9882 72.7836 19.7305 69.0947 19.7305C66.676 19.682 65.1066 18.5575 64.3381 16.6727ZM71.3517 12.1749V11.8189C71.3517 9.16553 69.9118 7.6851 67.8894 7.6851C65.8185 7.6851 64.3865 9.35159 64.3865 11.8674V12.183C64.3865 14.8768 65.778 16.4542 67.8489 16.4542C70.0493 16.4461 71.3517 15.0547 71.3517 12.1749ZM76.8364 12.4013V11.9969C76.8364 7.14311 79.9348 4.48976 84.1656 4.48976C88.4774 4.48976 91.4947 7.14311 91.4947 11.9969V12.4013C91.4947 17.1661 88.5259 19.7305 84.1656 19.7305C79.4899 19.682 76.8364 17.1661 76.8364 12.4013ZM87.6684 12.3528V11.9969C87.6684 9.30303 86.3175 7.6851 84.1656 7.6851C82.0543 7.6851 80.6628 9.16551 80.6628 11.9969V12.3528C80.6628 14.9576 82.0138 16.4461 84.1656 16.4461C86.3175 16.3976 87.6684 14.9657 87.6684 12.3528ZM96.4294 11.8189L91.3492 4.85375H95.7094L98.6298 9.21404L101.599 4.85375H105.91L100.741 11.7785L106.177 19.326H101.906L98.5812 14.5208L95.3454 19.326H90.8961L96.4294 11.8189Z" fill="#8C8A97"/>
</svg>
