<svg width="116" height="23" viewBox="0 0 116 23" fill="none" xmlns="http://www.w3.org/2000/svg">
<path d="M102.503 0.871913C104.001 -0.102746 105.936 -0.193484 107.624 0.270918C107.638 1.27387 107.625 2.2778 107.63 3.28173C106.828 2.92855 105.885 2.6983 105.041 3.04465C104.372 3.31002 103.974 3.99687 103.869 4.68372C103.743 5.55496 103.825 6.43791 103.804 7.31403C105.517 7.31793 107.23 7.315 108.944 7.31598C108.956 6.20376 108.93 5.09055 108.958 3.97833C110.123 3.64662 111.275 3.2749 112.434 2.92562C112.444 4.39103 112.421 5.85741 112.447 7.32379C113.605 7.3072 114.764 7.31988 115.923 7.31598V10.1687C114.76 10.1209 113.596 10.1561 112.433 10.1522C112.438 11.7922 112.434 13.4322 112.435 15.0733C112.454 15.9816 112.387 16.8948 112.493 17.8001C112.557 18.3338 112.751 18.9251 113.252 19.2012C114.09 19.6704 115.153 19.4656 115.923 18.9504V21.8315C114.919 22.2676 113.797 22.4003 112.711 22.3232C111.681 22.2471 110.614 21.8724 109.942 21.0529C109.165 20.127 108.965 18.8734 108.949 17.7006C108.941 15.1835 108.95 12.6664 108.946 10.1482C107.231 10.1473 105.517 10.1463 103.804 10.1492C103.802 14.0996 103.803 18.0499 103.803 22.0003C102.632 22.0003 101.46 22.0003 100.29 22.0003C100.29 18.0509 100.285 14.1025 100.292 10.1531C99.477 10.1375 98.6613 10.157 97.8467 10.1404C97.8496 9.20286 97.8535 8.26429 97.8447 7.32573C98.6555 7.3072 99.4672 7.315 100.28 7.32086C100.339 6.074 100.149 4.79104 100.522 3.57637C100.837 2.47976 101.538 1.49047 102.503 0.871913Z" fill="#8C8A97"/>
<path d="M27.2841 1.07676C27.9924 0.969439 28.7592 1.2114 29.2285 1.76556C29.7788 2.3724 29.8802 3.33828 29.4724 4.04757C29.0217 4.84759 28.0129 5.2193 27.1338 5.0271C26.2216 4.8632 25.4616 4.01537 25.5026 3.06998C25.4762 2.07483 26.3084 1.18798 27.2841 1.07676Z" fill="#8C8A97"/>
<path d="M0.359525 1.51196C2.06298 1.51196 3.76547 1.51196 5.46892 1.51196C7.05921 5.55011 8.66119 9.58436 10.2534 13.6225C10.6603 14.6323 11.0408 15.6538 11.4671 16.6558C13.513 11.6098 15.5882 6.57648 17.6185 1.52367C19.2566 1.49732 20.8957 1.51781 22.5347 1.51391C22.5308 8.34237 22.5328 15.1708 22.5338 21.9993C21.3513 21.9964 20.1698 22.0091 18.9883 21.9925C19.001 16.9533 18.9873 11.9142 18.9942 6.87404C18.9961 6.6477 18.9883 6.42135 18.9727 6.19501C18.9034 6.30037 18.842 6.40964 18.7883 6.52282C16.758 11.681 14.6887 16.8245 12.6701 21.9876C11.8291 22.0179 10.9871 21.9896 10.1451 22.0032C8.05045 16.845 5.98211 11.6751 3.89815 6.51306C3.84352 6.40574 3.78498 6.30135 3.72156 6.20086C3.67863 8.40872 3.71474 10.6185 3.70303 12.8264C3.704 15.884 3.70108 18.9417 3.704 21.9993C2.58885 22.0022 1.4737 21.9993 0.359525 22.0003C0.358549 15.1708 0.357574 8.3414 0.359525 1.51196Z" fill="#8C8A97"/>
<path d="M36.9528 7.30235C38.6485 6.81941 40.4768 6.83893 42.1715 7.31796C42.5208 7.41553 42.8593 7.55114 43.1735 7.73553C43.154 8.85458 43.1735 9.97461 43.1627 11.0946C42.03 10.2293 40.5929 9.68095 39.1529 9.86241C38.0094 9.96583 36.9187 10.559 36.2348 11.4829C35.3557 12.6283 35.1528 14.1494 35.304 15.5504C35.4172 16.647 35.8708 17.7426 36.7235 18.4695C37.6094 19.2568 38.8514 19.5358 40.0105 19.448C41.1558 19.3163 42.2369 18.8314 43.1627 18.1543C43.1725 19.2148 43.1579 20.2754 43.1705 21.3359C41.7344 22.1905 40.0124 22.411 38.3685 22.3301C36.6865 22.2413 35.0094 21.6042 33.7918 20.4217C32.4688 19.1466 31.7507 17.328 31.6659 15.5065C31.58 13.6128 31.9654 11.6371 33.0552 10.0556C33.9684 8.70629 35.3967 7.75114 36.9528 7.30235Z" fill="#8C8A97"/>
<path d="M75.3293 7.07889C76.9538 6.79303 78.6543 7.00279 80.1919 7.58525C80.1939 8.66235 80.1919 9.73847 80.1929 10.8146C79.1187 10.076 77.8065 9.67896 76.503 9.72482C75.8464 9.75018 75.1245 10.0282 74.825 10.6526C74.5869 11.2702 74.7518 12.08 75.3342 12.4498C76.3304 13.1161 77.5187 13.3991 78.5509 13.9961C79.3636 14.4527 80.1519 15.0498 80.5636 15.9103C81.3373 17.5221 81.0095 19.6519 79.6495 20.8539C78.3509 22.0676 76.4806 22.4032 74.7606 22.3388C73.5391 22.2598 72.3117 22.0188 71.1888 21.5193C71.1936 20.3866 71.1819 19.2548 71.1946 18.1231C72.139 18.809 73.2288 19.2997 74.382 19.4987C75.185 19.6295 76.0582 19.6353 76.8065 19.2763C77.5226 18.9202 77.6514 17.9026 77.226 17.2801C76.8279 16.8001 76.2435 16.5357 75.6923 16.2762C74.6571 15.8108 73.5693 15.4215 72.66 14.724C72.021 14.2254 71.5371 13.523 71.3478 12.7307C71.0668 11.5629 71.1546 10.2468 71.8337 9.22627C72.6093 8.03697 73.9566 7.32378 75.3293 7.07889Z" fill="#8C8A97"/>
<path d="M51.0292 7.54132C51.9989 6.95887 53.2312 6.91009 54.2897 7.26619C54.2849 8.43793 54.2897 9.60967 54.2868 10.7814C53.5941 10.3326 52.7297 10.1404 51.9121 10.2233C50.915 10.3365 50.1247 11.1024 49.715 11.9805C49.2701 12.9102 49.1862 13.962 49.2145 14.9786C49.2145 17.3191 49.2155 19.6597 49.2145 22.0002C48.0593 22.0002 46.9052 22.0002 45.751 22.0002C45.748 17.1084 45.7549 12.2156 45.748 7.32376C46.9042 7.30912 48.0603 7.31497 49.2164 7.32083C49.2116 8.16085 49.2164 9.00087 49.2135 9.84187C49.5891 8.9277 50.1482 8.03987 51.0292 7.54132Z" fill="#8C8A97"/>
<path d="M25.8213 7.32085C26.9862 7.31597 28.1521 7.30426 29.317 7.3267C29.3033 12.2176 29.316 17.1094 29.3111 22.0003C28.1482 22.0003 26.9852 22.0003 25.8232 22.0003C25.8203 17.1074 25.8242 12.2146 25.8213 7.32085Z" fill="#8C8A97"/>
<path fill-rule="evenodd" clip-rule="evenodd" d="M65.7846 7.64278C64.2197 6.93057 62.4411 6.83496 60.7552 7.0496C58.9844 7.27302 57.2605 8.10621 56.1366 9.51796C55.1102 10.7785 54.6107 12.398 54.515 14.0049C54.3736 15.8986 54.6897 17.9084 55.8019 19.4889C56.7493 20.8529 58.2449 21.7905 59.8606 22.1358C61.2108 22.4198 62.6236 22.4207 63.9738 22.1397C65.5534 21.8149 67.0285 20.9407 68.0071 19.6509C68.9632 18.4362 69.4432 16.9045 69.5515 15.3757C69.6618 13.8098 69.5037 12.1883 68.853 10.7443C68.2432 9.3882 67.1427 8.25548 65.7846 7.64278ZM64.7414 10.8351C63.9824 10.0673 62.8585 9.76874 61.8028 9.83801C60.9628 9.88484 60.114 10.1688 59.4916 10.7502C58.633 11.5278 58.2408 12.6869 58.1344 13.8137C58.0174 15.0528 58.1023 16.3592 58.6681 17.4889C59.1081 18.366 59.9169 19.0548 60.8701 19.3056C61.8067 19.5485 62.8263 19.528 63.7336 19.1797C64.5092 18.8773 65.1239 18.2392 65.4595 17.4841C65.9668 16.364 66.0166 15.1045 65.9542 13.8957C65.8673 12.7913 65.5532 11.6332 64.7414 10.8351Z" fill="#8C8A97"/>
<path fill-rule="evenodd" clip-rule="evenodd" d="M93.9712 7.75307C92.3712 6.94524 90.5096 6.82719 88.7564 7.04475C87.3427 7.22622 85.9534 7.76282 84.8744 8.71016C83.5573 9.84483 82.7846 11.5132 82.5572 13.2195C82.3407 14.9259 82.4138 16.7231 83.1094 18.3202C83.7768 19.887 85.0939 21.1593 86.6783 21.7827C88.2423 22.3983 89.9808 22.4676 91.6267 22.2012C93.3097 21.9232 94.9039 21.0383 95.9459 19.6763C97.0591 18.2694 97.5381 16.4489 97.5352 14.6752C97.5596 13.4878 97.4113 12.2839 96.9888 11.1688C96.4483 9.71117 95.3664 8.45064 93.9712 7.75307ZM92.5197 10.6712C91.7568 10.0009 90.6973 9.77162 89.705 9.84089C88.7333 9.89552 87.7694 10.3141 87.1411 11.0712C86.4523 11.8819 86.1567 12.9522 86.0767 13.9951C85.9937 15.0722 86.0766 16.1874 86.4932 17.1942C86.8396 18.0391 87.4972 18.7738 88.346 19.1328C89.1324 19.4714 90.0182 19.5319 90.8592 19.406C91.6426 19.2909 92.4017 18.9162 92.9119 18.3016C93.4183 17.6899 93.6856 16.9191 93.8203 16.1464C93.99 15.1093 93.992 14.041 93.791 13.0088C93.6125 12.1288 93.2232 11.2546 92.5197 10.6712Z" fill="#8C8A97"/>
</svg>
