<svg width="119" height="34" viewBox="0 0 119 34" fill="none" xmlns="http://www.w3.org/2000/svg">
<path d="M9.47546 0.943385C9.32293 0.418022 7.75532 0 7.28927 0C4.1738 0 0.264648 5.15196 0.264648 9.22777C0.264648 10.9705 1.63738 12.7387 3.02988 13.3149C3.60044 13.5521 3.9902 13.5493 4.13425 13.3488C4.27265 13.1567 4.20205 12.7952 3.86593 12.3009C3.26713 11.4196 3.06093 9.77854 3.04115 8.8295C2.99596 6.84385 4.36869 3.31885 5.90524 2.13819C6.04364 2.03086 6.28937 1.85572 6.28937 2.18901C6.28937 8.12336 6.28937 14.0436 6.28937 19.9751C6.28937 20.9072 6.06342 22.2912 5.877 23.3278C5.81768 23.6611 5.12003 25.3982 5.67364 25.3982C6.18488 25.3982 7.26385 24.6638 7.65082 24.2543C8.39932 23.4578 8.93032 22.4099 9.22407 21.3196C9.39919 20.6671 9.48959 19.139 9.48959 18.4979V0.98576C9.48112 0.971637 9.47828 0.960332 9.47546 0.943385Z" fill="#8C8A97"/>
<path d="M118.2 17.1393C118.104 17.0546 117.985 16.9953 117.85 16.9953C117.59 16.9953 117.423 17.1421 117.369 17.3568C117.265 17.7805 117.115 18.464 116.968 18.9357C116.714 19.7577 116.33 20.5457 115.686 20.5457C114.497 20.5457 114.231 18.2578 114.175 17.5178C114.104 16.6026 114.099 15.5632 114.076 14.761V11.8885L114.192 10.383C114.22 10.013 114.279 9.73055 114.183 9.37184C114.101 9.06679 113.921 8.80127 113.678 8.61485C113.166 8.22506 111.782 7.74207 111.257 7.74207C110.963 7.74207 110.698 7.8607 110.506 8.05277C110.297 8.26178 110.136 8.64592 110.028 8.90578C109.757 9.55825 109.523 10.1457 109.322 10.7022C109.074 11.3857 108.743 12.4816 108.472 13.5436C108.286 14.278 108.161 14.9361 108.048 15.662C108.031 15.7694 108.031 15.8005 108.015 15.9078C108.015 15.9106 108.006 15.9812 107.995 16.0038C107.969 16.0688 107.89 16.0518 107.879 15.9841C107.865 15.8965 107.856 15.8231 107.851 15.7355C107.707 14.0464 107.557 12.2896 107.599 10.5864C107.611 10.1486 107.622 9.62602 107.537 9.30684C107.464 9.03569 107.328 8.78998 107.145 8.58944C106.707 8.10644 105.95 7.87764 105.337 7.79572C105.035 7.75618 104.673 7.68841 104.405 7.84658C104.151 7.99628 103.947 8.40582 103.829 8.64309C103.057 10.1881 102.439 12.25 101.868 13.9645L101.888 9.01029C101.888 8.89731 101.897 8.70242 101.868 8.58944C101.832 8.44821 101.747 8.32393 101.634 8.2392C101.594 8.21095 101.448 8.14031 101.326 8.10642C100.82 7.96519 100.346 7.86354 99.8205 7.78728C99.7047 7.77033 99.5296 7.74207 99.4138 7.74207C99.2218 7.74207 99.0636 7.85505 98.9845 8.01605C98.832 8.31545 98.8405 13.9221 98.8546 16.2298C98.7783 16.8568 98.6597 17.6788 98.4252 18.4527C98.2275 19.1052 97.5609 20.444 96.7729 20.5994C95.9397 20.766 95.4595 19.9017 95.2731 18.5657C95.0301 16.3795 95.1347 12.2698 95.2702 9.9565C95.3352 8.83516 95.5442 8.41147 94.3579 8.10924C93.5529 7.90305 93.0671 7.872 92.7338 7.92002C92.3892 7.97086 92.2282 8.38607 92.2847 9.12045C91.2594 7.55001 89.7822 7.32685 88.7512 7.437C86.3306 7.69968 84.6048 11.2417 84.3082 13.9306C84.1275 15.5689 84.2828 17.0602 84.4833 18.3002C84.424 19.1306 84.2969 20.6332 82.8056 20.5513C81.5741 20.4835 80.8679 18.4612 81.0854 15.7525C81.2238 14.0323 81.7887 11.6089 81.9554 10.8039C82.3169 9.0357 81.2831 8.69675 79.8313 8.88882C79.0687 8.9905 78.018 9.21084 76.8599 9.40573C77.1028 8.516 77.0096 7.56412 76.3204 7.23647C75.6906 6.93707 74.6003 6.9964 73.9874 7.67429C73.1146 8.63463 72.8858 10.3491 74.2105 11.2162C74.0495 12.5522 72.5327 16.1846 70.6092 18.7295C70.6403 17.2692 70.79 10.7022 70.7137 8.95098C70.6855 8.31829 70.1234 8.07255 69.6093 7.9624C69.5302 7.94545 68.8693 7.88329 68.8693 7.87482C68.5191 7.84657 68.1886 7.89176 67.9542 8.08101C67.6548 8.32109 67.6689 8.60071 67.7084 9.13455C66.6125 7.45678 65.0759 7.3184 63.9772 7.53872C61.6695 7.99912 60.0483 11.2868 59.7574 13.9334C59.6415 14.9983 59.6331 16.0462 59.6952 16.9953C59.7206 17.3737 59.7545 17.7324 59.8054 18.077C59.4382 19.4017 58.8196 20.4355 58.0372 20.605C57.2068 20.7858 56.7238 19.9073 56.5374 18.5713C56.2945 16.3851 56.399 12.2755 56.5345 9.96216C56.5995 8.84081 56.8085 8.41712 55.6222 8.1149C54.8172 7.90871 54.3314 7.87766 53.9981 7.92568C53.6535 7.97652 53.4925 8.39172 53.549 9.1261C52.5237 7.55566 51.0465 7.3325 50.0155 7.44266C47.5949 7.70534 45.8691 11.2473 45.5725 13.9363C45.468 14.8825 45.4765 15.7807 45.5387 16.6083C45.3522 17.1817 45.0557 17.9019 44.8269 18.3313C43.3638 21.0908 41.734 20.7632 41.477 17.4076C41.3979 16.3767 41.3781 15.2892 41.3781 14.2526C41.46 11.8631 41.5448 9.4707 41.6267 7.08114C42.9429 7.09244 44.2761 7.08396 45.6573 7.0416C46.2165 7.02465 46.5781 5.19151 46.0584 5.15479C44.6037 5.05311 43.1547 4.9599 41.7029 4.87799L41.8357 1.04508C41.8357 1.03378 41.8357 1.0225 41.8272 0.994255C41.7509 0.728748 41.5448 0.621417 41.2934 0.536681C40.9968 0.440647 40.5251 0.290941 40.0732 0.17796C39.4235 0.0169612 38.5423 -0.209003 38.4745 0.77676C38.4236 1.51679 38.37 3.0138 38.322 4.70004C37.3108 4.65203 36.294 4.60967 35.2686 4.57013C34.6698 4.54753 33.9693 6.92011 34.9269 6.94271C36.0567 6.96813 37.1639 6.99638 38.2683 7.0218C38.2344 8.61202 38.1016 12.0495 38.1045 15.0181C37.5311 16.5066 36.7346 17.9358 35.7658 18.6984C36.0426 17.7268 35.9437 15.8541 33.8083 14.2046C33.0514 13.6199 32.1447 12.9279 30.8737 11.9732C31.6673 11.0016 32.526 9.62602 32.5458 8.56964C32.5571 7.91718 32.0571 7.29861 30.9358 7.30709C28.9106 7.32121 27.5548 9.20799 27.5605 10.7643C27.5633 11.7444 28.1875 12.4365 28.4587 12.798C25.1907 18.9159 24.4676 19.6644 23.8406 19.6644C23.4338 19.6644 23.2474 18.7775 23.2785 16.0434C23.3067 13.5973 23.4762 11.9478 23.479 9.96216C23.479 9.13174 22.9593 8.65723 22.4255 8.35218C22.1289 8.18271 20.8437 7.70534 20.4596 7.69405C19.8975 7.6771 19.0897 8.194 18.4175 8.94533C16.8498 10.6937 15.9771 13.3629 15.237 15.5858L15.2568 9.01312C15.2568 8.90013 15.2653 8.70524 15.237 8.59226C15.1664 8.30981 14.9602 8.18268 14.6975 8.10924C14.2004 7.97084 13.3022 7.7449 12.7853 7.7449C12.5932 7.7449 12.4633 7.87763 12.404 8.03863C12.3532 8.17703 12.3927 11.2897 12.3758 14.5407C12.3645 16.6845 12.3475 18.7493 12.3871 20.0994C12.4295 21.5286 12.4577 22.4325 14.2852 22.4409C15.1382 22.4438 15.3274 22.4664 15.446 21.7518C15.8584 19.3142 17.2029 13.3968 20.1517 10.2474C20.2449 10.1599 20.4144 10.2135 20.4031 10.4112C20.2054 13.5663 19.9766 17.3116 20.3975 20.3734C20.5161 21.2433 21.0358 22.5681 22.0978 22.5681C23.5242 22.5681 24.5636 22.2432 27.2809 17.8765C27.9446 16.8088 28.6988 15.518 29.6111 13.9306C30.1675 14.4391 30.7352 14.9361 31.2832 15.453C32.2887 16.3964 32.8452 17.3907 32.8678 18.3002C32.8932 19.4215 32.317 20.3734 31.4047 20.3706C30.1223 20.3649 29.4811 19.1221 28.71 19.1249C27.8994 19.1278 27.2498 20.5485 27.2554 21.1614C27.2639 21.8619 29.097 22.6726 31.4555 22.6669C33.2435 22.6641 34.6585 21.9721 35.8759 20.8903C36.8334 20.0373 37.8023 18.3736 38.3417 17.0207C38.4321 19.3763 39.7173 22.4325 41.9232 22.4325C42.9711 22.4325 43.9852 21.7292 44.7676 20.7349C45.2929 20.0683 45.5951 19.5402 45.9115 18.7662C46.112 19.4272 46.3945 20.1559 46.6176 20.492C47.2757 21.4919 48.1542 22.3929 49.4563 22.4777C50.9392 22.5737 51.9306 22.037 52.7017 21.2942C53.292 20.7265 53.6253 20.2406 54.0546 19.4921C54.2185 21.023 55.659 22.489 57.3989 22.4551C59.0173 22.424 59.8025 21.1671 60.2545 19.7153C60.4098 20.0797 60.6075 20.4299 60.8589 20.7688C62.7627 23.3476 65.8584 22.8505 67.8214 20.2661C67.8327 20.8649 67.844 21.4467 67.8468 21.6134C66.1182 23.2714 64.1551 24.8023 62.709 26.6269C61.7995 27.7765 61.4238 29.0532 61.4775 29.9881C61.5876 31.8608 63.6128 33.1544 65.429 33.1544C68.9992 33.1544 70.1234 30.4767 70.6544 26.7484C70.9397 24.7514 70.7137 22.7093 70.7589 20.8959C72.9282 18.3821 75.5578 14.3713 76.3233 11.2021L78.436 11.1484C78.5377 11.1456 78.6761 11.1598 78.7495 11.2332C78.8088 11.2925 78.7467 11.4648 78.7043 11.6823C78.1507 14.4871 77.4022 17.755 78.8032 20.3338C79.4754 21.571 80.5233 22.4466 81.9864 22.472C83.3422 22.4946 84.5624 21.3563 85.1951 20.2378C85.8702 21.3337 86.7825 22.3845 88.1948 22.4749C89.6777 22.5709 90.6691 22.0342 91.4402 21.2914C92.0305 20.7236 92.3638 20.2378 92.7931 19.4893C92.8835 19.7802 92.9654 20.2434 93.0982 20.5005C93.68 21.6049 94.7646 22.4268 95.7787 22.4664C97.8632 22.5483 98.3716 21.1727 98.8772 20.1333C98.8856 20.5598 98.9421 21.4298 99.0099 21.7433C99.0438 21.9015 99.1568 22.0173 99.3008 22.0879C99.8206 22.3477 100.518 22.4325 101.165 22.4297C101.56 22.4268 102.111 22.4833 102.357 22.1161C102.498 21.9071 102.49 21.4496 102.501 21.1982C102.549 20.2068 102.583 18.5346 102.648 17.8822C102.86 16.0829 103.103 15.1056 103.574 13.9476C103.865 13.2301 104.117 12.476 104.701 11.4874C104.73 11.4394 104.78 11.4027 104.84 11.4027C104.95 11.4027 104.995 11.4987 104.995 11.5778C105.012 12.3912 105.026 13.1341 105.063 13.8289C105.162 15.7524 105.32 17.3144 105.617 18.9922C105.67 19.3029 105.727 19.656 105.826 19.9582C106.094 20.7773 106.865 21.3676 107.772 21.3676C108.048 21.3676 108.311 21.314 108.551 21.2151C108.622 21.1869 108.687 21.153 108.749 21.1106C108.873 21.0287 108.938 20.9468 108.969 20.7999C108.989 20.7067 108.986 20.5937 108.989 20.4949C108.992 20.4129 108.995 20.331 108.997 20.2491C109.051 18.7973 109.184 17.5856 109.48 16.3287C109.952 14.3204 110.545 12.4421 111.178 11.3066C111.201 11.2643 111.223 11.2106 111.277 11.2106C111.322 11.2106 111.35 11.2417 111.356 11.2868C111.362 11.3264 111.356 11.3886 111.353 11.4168C111.283 12.0438 111.263 12.6822 111.26 13.3177C111.257 14.2865 111.257 15.2553 111.311 16.2242C111.376 17.3737 111.503 18.4922 111.737 19.3339C111.853 19.7548 111.997 20.1248 112.164 20.4525C112.737 21.5682 113.754 22.4297 115.067 22.4297C116.627 22.4297 117.607 21.2546 118.013 19.8734C118.109 19.5458 118.197 19.2294 118.259 18.882C118.316 18.5261 118.479 17.385 118.2 17.1393ZM53.4219 15.535C53.3146 19.2238 51.6679 20.7377 50.442 20.509C48.9535 20.2322 48.4733 18.2606 48.7106 14.7215C48.9253 11.5128 50.072 9.78138 51.3572 9.77573C53.3711 9.77008 53.6253 13.3205 53.4219 15.535ZM67.6068 15.535C67.4994 19.2238 65.8527 20.7377 64.6269 20.509C63.1383 20.2322 62.6581 18.2606 62.8954 14.7215C63.2033 10.1062 65.96 8.53577 67.2085 10.7107C67.7338 11.6286 67.6745 13.233 67.6068 15.535ZM66.2397 31.5642C64.8556 32.3042 63.3134 31.1433 63.8444 29.3046C64.3416 27.5844 66.7368 25.1214 67.9937 23.695C68.022 25.5875 68.166 30.5304 66.2397 31.5642ZM92.1576 15.535C92.0503 19.2238 90.4036 20.7377 89.1777 20.509C87.6892 20.2322 87.209 18.2606 87.4463 14.7215C87.6609 11.5128 88.8077 9.78138 90.0929 9.77573C92.1068 9.77008 92.3609 13.3205 92.1576 15.535Z" fill="#8C8A97"/>
</svg>
