<svg width="56" height="32" viewBox="0 0 56 32" fill="none" xmlns="http://www.w3.org/2000/svg">
<path opacity="0.6" d="M46.1873 -4.03742e-07L55.4238 16L36.9508 16L46.1873 -4.03742e-07Z" fill="white"/>
<path opacity="0.4" d="M46.1873 32L55.4238 16L36.9508 16L46.1873 32Z" fill="white"/>
<path opacity="0.7" d="M27.7134 32L46.1865 32L36.95 16" fill="white"/>
<path opacity="0.4" d="M27.7137 -4.03742e-07L18.4728 16L36.9502 16L27.7137 -4.03742e-07Z" fill="white"/>
<path opacity="0.6" d="M36.9502 16L18.4728 16L27.7137 32L36.9502 16Z" fill="white"/>
<path opacity="0.7" d="M27.7139 0L9.23651 -8.07671e-07L18.473 16L27.7139 0Z" fill="white"/>
<path opacity="0.4" d="M9.23612 -4.03742e-07L-0.000418409 16L18.4727 16L9.23612 -4.03742e-07Z" fill="white"/>
<path opacity="0.6" d="M18.4727 16L-0.000417709 16L9.23612 32L18.4727 16Z" fill="white"/>
</svg>
