<svg width="119" height="34" viewBox="0 0 119 34" fill="none" xmlns="http://www.w3.org/2000/svg">
<path d="M9.47643 0.943385C9.32391 0.418022 7.75629 0 7.29024 0C4.17478 0 0.265625 5.15196 0.265625 9.22777C0.265625 10.9705 1.63836 12.7387 3.03086 13.3149C3.60141 13.5521 3.99117 13.5493 4.13523 13.3488C4.27363 13.1567 4.20303 12.7952 3.86691 12.3009C3.26811 11.4196 3.0619 9.77854 3.04213 8.8295C2.99694 6.84385 4.36967 3.31885 5.90621 2.13819C6.04462 2.03086 6.29035 1.85572 6.29035 2.18901C6.29035 8.12336 6.29035 14.0436 6.29035 19.9751C6.29035 20.9072 6.0644 22.2912 5.87798 23.3278C5.81866 23.6611 5.12101 25.3982 5.67462 25.3982C6.18586 25.3982 7.26483 24.6638 7.65179 24.2543C8.40029 23.4578 8.93129 22.4099 9.22504 21.3196C9.40016 20.6671 9.49057 19.139 9.49057 18.4979V0.98576C9.48209 0.971637 9.47926 0.960332 9.47643 0.943385Z" fill="#8C8A97"/>
<path d="M118.201 17.1393C118.105 17.0546 117.986 16.9953 117.851 16.9953C117.591 16.9953 117.424 17.1421 117.37 17.3568C117.266 17.7805 117.116 18.464 116.969 18.9357C116.715 19.7577 116.331 20.5457 115.687 20.5457C114.498 20.5457 114.232 18.2578 114.176 17.5178C114.105 16.6026 114.1 15.5632 114.077 14.761V11.8885L114.193 10.383C114.221 10.013 114.28 9.73055 114.184 9.37184C114.102 9.06679 113.922 8.80127 113.679 8.61485C113.167 8.22506 111.783 7.74207 111.258 7.74207C110.964 7.74207 110.699 7.8607 110.507 8.05277C110.298 8.26178 110.137 8.64592 110.029 8.90578C109.758 9.55825 109.524 10.1457 109.323 10.7022C109.075 11.3857 108.744 12.4816 108.473 13.5436C108.287 14.278 108.162 14.9361 108.049 15.662C108.032 15.7694 108.032 15.8005 108.016 15.9078C108.016 15.9106 108.007 15.9812 107.996 16.0038C107.97 16.0688 107.891 16.0518 107.88 15.9841C107.866 15.8965 107.857 15.8231 107.852 15.7355C107.708 14.0464 107.558 12.2896 107.6 10.5864C107.612 10.1486 107.623 9.62602 107.538 9.30684C107.465 9.03569 107.329 8.78998 107.146 8.58944C106.708 8.10644 105.951 7.87764 105.338 7.79572C105.036 7.75618 104.674 7.68841 104.406 7.84658C104.152 7.99628 103.948 8.40582 103.83 8.64309C103.058 10.1881 102.44 12.25 101.869 13.9645L101.889 9.01029C101.889 8.89731 101.898 8.70242 101.869 8.58944C101.833 8.44821 101.748 8.32393 101.635 8.2392C101.595 8.21095 101.448 8.14031 101.327 8.10642C100.821 7.96519 100.347 7.86354 99.8215 7.78728C99.7057 7.77033 99.5306 7.74207 99.4148 7.74207C99.2227 7.74207 99.0646 7.85505 98.9855 8.01605C98.8329 8.31545 98.8414 13.9221 98.8556 16.2298C98.7793 16.8568 98.6607 17.6788 98.4262 18.4527C98.2285 19.1052 97.5619 20.444 96.7739 20.5994C95.9406 20.766 95.4604 19.9017 95.274 18.5657C95.0311 16.3795 95.1356 12.2698 95.2712 9.9565C95.3362 8.83516 95.5452 8.41147 94.3589 8.10924C93.5539 7.90305 93.0681 7.872 92.7348 7.92002C92.3902 7.97086 92.2292 8.38607 92.2857 9.12045C91.2604 7.55001 89.7831 7.32685 88.7522 7.437C86.3316 7.69968 84.6058 11.2417 84.3092 13.9306C84.1284 15.5689 84.2838 17.0602 84.4843 18.3002C84.425 19.1306 84.2979 20.6332 82.8065 20.5513C81.575 20.4835 80.8689 18.4612 81.0864 15.7525C81.2248 14.0323 81.7897 11.6089 81.9563 10.8039C82.3179 9.0357 81.2841 8.69675 79.8323 8.88882C79.0697 8.9905 78.019 9.21084 76.8609 9.40573C77.1038 8.516 77.0106 7.56412 76.3214 7.23647C75.6915 6.93707 74.6013 6.9964 73.9883 7.67429C73.1156 8.63463 72.8868 10.3491 74.2115 11.2162C74.0505 12.5522 72.5337 16.1846 70.6102 18.7295C70.6413 17.2692 70.791 10.7022 70.7147 8.95098C70.6865 8.31829 70.1244 8.07255 69.6103 7.9624C69.5312 7.94545 68.8703 7.88329 68.8703 7.87482C68.52 7.84657 68.1896 7.89176 67.9551 8.08101C67.6557 8.32109 67.6699 8.60071 67.7094 9.13455C66.6135 7.45678 65.0769 7.3184 63.9782 7.53872C61.6705 7.99912 60.0493 11.2868 59.7583 13.9334C59.6425 14.9983 59.6341 16.0462 59.6962 16.9953C59.7216 17.3737 59.7555 17.7324 59.8064 18.077C59.4392 19.4017 58.8206 20.4355 58.0382 20.605C57.2078 20.7858 56.7248 19.9073 56.5384 18.5713C56.2954 16.3851 56.3999 12.2755 56.5355 9.96216C56.6005 8.84081 56.8095 8.41712 55.6232 8.1149C54.8182 7.90871 54.3324 7.87766 53.9991 7.92568C53.6545 7.97652 53.4935 8.39172 53.55 9.1261C52.5247 7.55566 51.0475 7.3325 50.0165 7.44266C47.5959 7.70534 45.8701 11.2473 45.5735 13.9363C45.469 14.8825 45.4775 15.7807 45.5396 16.6083C45.3532 17.1817 45.0566 17.9019 44.8278 18.3313C43.3647 21.0908 41.735 20.7632 41.4779 17.4076C41.3989 16.3767 41.3791 15.2892 41.3791 14.2526C41.461 11.8631 41.5457 9.4707 41.6277 7.08114C42.9439 7.09244 44.277 7.08396 45.6582 7.0416C46.2175 7.02465 46.579 5.19151 46.0593 5.15479C44.6047 5.05311 43.1557 4.9599 41.7039 4.87799L41.8367 1.04508C41.8367 1.03378 41.8367 1.0225 41.8282 0.994255C41.7519 0.728748 41.5457 0.621417 41.2943 0.536681C40.9978 0.440647 40.5261 0.290941 40.0742 0.17796C39.4245 0.0169612 38.5433 -0.209003 38.4755 0.77676C38.4246 1.51679 38.3709 3.0138 38.3229 4.70004C37.3117 4.65203 36.2949 4.60967 35.2696 4.57013C34.6708 4.54753 33.9703 6.92011 34.9278 6.94271C36.0576 6.96813 37.1649 6.99638 38.2693 7.0218C38.2354 8.61202 38.1026 12.0495 38.1054 15.0181C37.5321 16.5066 36.7356 17.9358 35.7667 18.6984C36.0435 17.7268 35.9447 15.8541 33.8093 14.2046C33.0523 13.6199 32.1457 12.9279 30.8746 11.9732C31.6683 11.0016 32.527 9.62602 32.5468 8.56964C32.5581 7.91718 32.0581 7.29861 30.9368 7.30709C28.9116 7.32121 27.5558 9.20799 27.5615 10.7643C27.5643 11.7444 28.1885 12.4365 28.4596 12.798C25.1917 18.9159 24.4686 19.6644 23.8415 19.6644C23.4348 19.6644 23.2484 18.7775 23.2794 16.0434C23.3077 13.5973 23.4772 11.9478 23.48 9.96216C23.48 9.13174 22.9603 8.65723 22.4264 8.35218C22.1299 8.18271 20.8447 7.70534 20.4606 7.69405C19.8985 7.6771 19.0907 8.194 18.4184 8.94533C16.8508 10.6937 15.978 13.3629 15.238 15.5858L15.2578 9.01312C15.2578 8.90013 15.2663 8.70524 15.238 8.59226C15.1674 8.30981 14.9612 8.18268 14.6985 8.10924C14.2014 7.97084 13.3032 7.7449 12.7863 7.7449C12.5942 7.7449 12.4643 7.87763 12.405 8.03863C12.3541 8.17703 12.3937 11.2897 12.3767 14.5407C12.3655 16.6845 12.3485 18.7493 12.3881 20.0994C12.4304 21.5286 12.4587 22.4325 14.2861 22.4409C15.1391 22.4438 15.3284 22.4664 15.447 21.7518C15.8594 19.3142 17.2039 13.3968 20.1527 10.2474C20.2459 10.1599 20.4154 10.2135 20.4041 10.4112C20.2064 13.5663 19.9776 17.3116 20.3984 20.3734C20.5171 21.2433 21.0368 22.5681 22.0988 22.5681C23.5252 22.5681 24.5646 22.2432 27.2818 17.8765C27.9456 16.8088 28.6997 15.518 29.6121 13.9306C30.1685 14.4391 30.7362 14.9361 31.2842 15.453C32.2897 16.3964 32.8462 17.3907 32.8688 18.3002C32.8942 19.4215 32.318 20.3734 31.4056 20.3706C30.1233 20.3649 29.4821 19.1221 28.711 19.1249C27.9004 19.1278 27.2508 20.5485 27.2564 21.1614C27.2649 21.8619 29.098 22.6726 31.4565 22.6669C33.2444 22.6641 34.6595 21.9721 35.8769 20.8903C36.8344 20.0373 37.8032 18.3736 38.3427 17.0207C38.4331 19.3763 39.7182 22.4325 41.9242 22.4325C42.9721 22.4325 43.9861 21.7292 44.7685 20.7349C45.2939 20.0683 45.5961 19.5402 45.9125 18.7662C46.113 19.4272 46.3954 20.1559 46.6186 20.492C47.2767 21.4919 48.1551 22.3929 49.4573 22.4777C50.9401 22.5737 51.9315 22.037 52.7026 21.2942C53.293 20.7265 53.6263 20.2406 54.0556 19.4921C54.2194 21.023 55.6599 22.489 57.3998 22.4551C59.0183 22.424 59.8035 21.1671 60.2555 19.7153C60.4108 20.0797 60.6085 20.4299 60.8599 20.7688C62.7636 23.3476 65.8593 22.8505 67.8224 20.2661C67.8337 20.8649 67.845 21.4467 67.8478 21.6134C66.1192 23.2714 64.1561 24.8023 62.71 26.6269C61.8005 27.7765 61.4248 29.0532 61.4785 29.9881C61.5886 31.8608 63.6138 33.1544 65.43 33.1544C69.0002 33.1544 70.1244 30.4767 70.6554 26.7484C70.9407 24.7514 70.7147 22.7093 70.7599 20.8959C72.9291 18.3821 75.5588 14.3713 76.3242 11.2021L78.437 11.1484C78.5387 11.1456 78.6771 11.1598 78.7505 11.2332C78.8098 11.2925 78.7477 11.4648 78.7053 11.6823C78.1517 14.4871 77.4032 17.755 78.8042 20.3338C79.4764 21.571 80.5243 22.4466 81.9874 22.472C83.3432 22.4946 84.5634 21.3563 85.1961 20.2378C85.8712 21.3337 86.7835 22.3845 88.1958 22.4749C89.6786 22.5709 90.6701 22.0342 91.4412 21.2914C92.0315 20.7236 92.3648 20.2378 92.7941 19.4893C92.8845 19.7802 92.9664 20.2434 93.0992 20.5005C93.681 21.6049 94.7656 22.4268 95.7796 22.4664C97.8641 22.5483 98.3726 21.1727 98.8781 20.1333C98.8866 20.5598 98.9431 21.4298 99.0109 21.7433C99.0448 21.9015 99.1578 22.0173 99.3018 22.0879C99.8215 22.3477 100.519 22.4325 101.166 22.4297C101.561 22.4268 102.112 22.4833 102.358 22.1161C102.499 21.9071 102.491 21.4496 102.502 21.1982C102.55 20.2068 102.584 18.5346 102.649 17.8822C102.861 16.0829 103.104 15.1056 103.575 13.9476C103.866 13.2301 104.118 12.476 104.702 11.4874C104.731 11.4394 104.781 11.4027 104.841 11.4027C104.951 11.4027 104.996 11.4987 104.996 11.5778C105.013 12.3912 105.027 13.1341 105.064 13.8289C105.163 15.7524 105.321 17.3144 105.617 18.9922C105.671 19.3029 105.728 19.656 105.826 19.9582C106.095 20.7773 106.866 21.3676 107.773 21.3676C108.049 21.3676 108.312 21.314 108.552 21.2151C108.623 21.1869 108.688 21.153 108.75 21.1106C108.874 21.0287 108.939 20.9468 108.97 20.7999C108.99 20.7067 108.987 20.5937 108.99 20.4949C108.993 20.4129 108.996 20.331 108.998 20.2491C109.052 18.7973 109.185 17.5856 109.481 16.3287C109.953 14.3204 110.546 12.4421 111.179 11.3066C111.202 11.2643 111.224 11.2106 111.278 11.2106C111.323 11.2106 111.351 11.2417 111.357 11.2868C111.363 11.3264 111.357 11.3886 111.354 11.4168C111.284 12.0438 111.264 12.6822 111.261 13.3177C111.258 14.2865 111.258 15.2553 111.312 16.2242C111.377 17.3737 111.504 18.4922 111.738 19.3339C111.854 19.7548 111.998 20.1248 112.165 20.4525C112.738 21.5682 113.755 22.4297 115.068 22.4297C116.628 22.4297 117.608 21.2546 118.014 19.8734C118.11 19.5458 118.198 19.2294 118.26 18.882C118.317 18.5261 118.48 17.385 118.201 17.1393ZM53.4229 15.535C53.3156 19.2238 51.6689 20.7377 50.443 20.509C48.9545 20.2322 48.4743 18.2606 48.7116 14.7215C48.9262 11.5128 50.073 9.78138 51.3582 9.77573C53.3721 9.77008 53.6262 13.3205 53.4229 15.535ZM67.6077 15.535C67.5004 19.2238 65.8537 20.7377 64.6278 20.509C63.1393 20.2322 62.6591 18.2606 62.8964 14.7215C63.2043 10.1062 65.961 8.53577 67.2095 10.7107C67.7348 11.6286 67.6755 13.233 67.6077 15.535ZM66.2406 31.5642C64.8566 32.3042 63.3144 31.1433 63.8454 29.3046C64.3425 27.5844 66.7378 25.1214 67.9947 23.695C68.0229 25.5875 68.167 30.5304 66.2406 31.5642ZM92.1586 15.535C92.0512 19.2238 90.4045 20.7377 89.1787 20.509C87.6902 20.2322 87.21 18.2606 87.4473 14.7215C87.6619 11.5128 88.8087 9.78138 90.0938 9.77573C92.1077 9.77008 92.3619 13.3205 92.1586 15.535Z" fill="#8C8A97"/>
</svg>
