<svg width="17" height="16" viewBox="0 0 17 16" fill="none" xmlns="http://www.w3.org/2000/svg">
<path d="M16.4189 6.96667V0H10.119V5.5C10.119 8.47778 10.4563 10.6222 11.1309 11.9333C12.0666 13.7333 13.5246 15.0889 15.5049 16L16.9412 13.6333C15.7661 13.1444 14.8956 12.3778 14.3298 11.3333C13.7423 10.2667 13.4158 8.81111 13.3505 6.96667H16.4189ZM6.29988 6.96667V0H-1.14441e-05V5.5C-1.14441e-05 8.47778 0.337288 10.6222 1.01189 11.9333C1.94762 13.7333 3.40563 15.0889 5.38591 16L6.82216 13.6333C5.64705 13.1444 4.77659 12.3778 4.2108 11.3333C3.62324 10.2667 3.29683 8.81111 3.23154 6.96667H6.29988Z" fill="#C6C5CE"/>
</svg>
