<svg width="22" height="10" viewBox="0 0 22 10" fill="none" xmlns="http://www.w3.org/2000/svg">
<path d="M1.066 9V2.682H2.132V9H1.066ZM1.612 1.382C1.404 1.382 1.22633 1.317 1.079 1.187C0.940333 1.057 0.871 0.892333 0.871 0.692999C0.871 0.484999 0.940333 0.320333 1.079 0.198999C1.22633 0.0689995 1.404 0.00399959 1.612 0.00399959C1.82 0.00399959 1.99333 0.0689995 2.132 0.198999C2.27933 0.320333 2.353 0.484999 2.353 0.692999C2.353 0.892333 2.27933 1.057 2.132 1.187C1.99333 1.317 1.82 1.382 1.612 1.382ZM6.63122 9.156C6.21522 9.156 5.82522 9.08233 5.46122 8.935C5.09722 8.78767 4.78089 8.57533 4.51222 8.298C4.25222 8.012 4.04422 7.66533 3.88822 7.258C3.74089 6.842 3.66722 6.374 3.66722 5.854C3.66722 5.32533 3.74955 4.85733 3.91422 4.45C4.07889 4.034 4.29989 3.683 4.57722 3.397C4.85455 3.111 5.17522 2.89433 5.53922 2.747C5.91189 2.59967 6.30189 2.526 6.70922 2.526C7.12522 2.526 7.48055 2.59967 7.77522 2.747C8.06989 2.89433 8.32989 3.06767 8.55522 3.267L8.00922 3.969C7.82722 3.80433 7.63222 3.67 7.42422 3.566C7.22489 3.462 6.99955 3.41 6.74822 3.41C6.46222 3.41 6.19789 3.47067 5.95522 3.592C5.71255 3.70467 5.50455 3.86933 5.33122 4.086C5.15789 4.30267 5.01922 4.56267 4.91522 4.866C4.81989 5.16067 4.77222 5.49 4.77222 5.854C4.77222 6.218 4.81989 6.54733 4.91522 6.842C5.01055 7.13667 5.14055 7.39233 5.30522 7.609C5.47855 7.817 5.68655 7.98167 5.92922 8.103C6.17189 8.21567 6.43622 8.272 6.72222 8.272C7.01689 8.272 7.28555 8.21133 7.52822 8.09C7.77955 7.96 8.00489 7.80833 8.20422 7.635L8.67222 8.35C8.38622 8.60133 8.06989 8.80067 7.72322 8.948C7.37655 9.08667 7.01255 9.156 6.63122 9.156ZM12.1116 9.156C11.7216 9.156 11.349 9.08233 10.9936 8.935C10.647 8.78767 10.3393 8.57533 10.0706 8.298C9.80197 8.012 9.5853 7.66533 9.42063 7.258C9.26463 6.842 9.18663 6.374 9.18663 5.854C9.18663 5.32533 9.26463 4.85733 9.42063 4.45C9.5853 4.034 9.80197 3.683 10.0706 3.397C10.3393 3.111 10.647 2.89433 10.9936 2.747C11.349 2.59967 11.7216 2.526 12.1116 2.526C12.5016 2.526 12.87 2.59967 13.2166 2.747C13.572 2.89433 13.884 3.111 14.1526 3.397C14.4213 3.683 14.6336 4.034 14.7896 4.45C14.9543 4.85733 15.0366 5.32533 15.0366 5.854C15.0366 6.374 14.9543 6.842 14.7896 7.258C14.6336 7.66533 14.4213 8.012 14.1526 8.298C13.884 8.57533 13.572 8.78767 13.2166 8.935C12.87 9.08233 12.5016 9.156 12.1116 9.156ZM12.1116 8.272C12.3803 8.272 12.6273 8.21567 12.8526 8.103C13.078 7.98167 13.2686 7.817 13.4246 7.609C13.5893 7.39233 13.715 7.13667 13.8016 6.842C13.8883 6.54733 13.9316 6.218 13.9316 5.854C13.9316 5.49 13.8883 5.16067 13.8016 4.866C13.715 4.56267 13.5893 4.30267 13.4246 4.086C13.2686 3.86933 13.078 3.70467 12.8526 3.592C12.6273 3.47067 12.3803 3.41 12.1116 3.41C11.843 3.41 11.596 3.47067 11.3706 3.592C11.1453 3.70467 10.9503 3.86933 10.7856 4.086C10.6296 4.30267 10.5083 4.56267 10.4216 4.866C10.335 5.16067 10.2916 5.49 10.2916 5.854C10.2916 6.218 10.335 6.54733 10.4216 6.842C10.5083 7.13667 10.6296 7.39233 10.7856 7.609C10.9503 7.817 11.1453 7.98167 11.3706 8.103C11.596 8.21567 11.843 8.272 12.1116 8.272ZM16.5705 9V2.682H17.4545L17.5455 3.592H17.5845C17.8879 3.28867 18.2042 3.03733 18.5335 2.838C18.8715 2.63 19.2615 2.526 19.7035 2.526C20.3709 2.526 20.8562 2.734 21.1595 3.15C21.4715 3.566 21.6275 4.18133 21.6275 4.996V9H20.5615V5.139C20.5615 4.541 20.4662 4.112 20.2755 3.852C20.0849 3.58333 19.7815 3.449 19.3655 3.449C19.0362 3.449 18.7459 3.53133 18.4945 3.696C18.2432 3.86067 17.9572 4.10333 17.6365 4.424V9H16.5705Z" fill="#5F5C6B"/>
</svg>
