<svg width="7" height="18" viewBox="0 0 7 18" fill="none" xmlns="http://www.w3.org/2000/svg">
<path d="M5.02262 0C5.40272 0 5.72398 0.131222 5.98643 0.393665C6.24887 0.656109 6.38009 0.977376 6.38009 1.35747C6.38009 1.72851 6.24434 2.04977 5.97285 2.32127C5.71041 2.58371 5.39367 2.71493 5.02262 2.71493C4.65158 2.71493 4.33032 2.58371 4.05882 2.32127C3.79638 2.04977 3.66516 1.72851 3.66516 1.35747C3.66516 0.977376 3.79638 0.656109 4.05882 0.393665C4.32127 0.131222 4.64253 0 5.02262 0ZM5.1991 5.38914L2.51131 14.905C2.33032 15.5475 2.23982 15.9321 2.23982 16.0588C2.23982 16.2036 2.28054 16.3213 2.36199 16.4118C2.45249 16.5023 2.55656 16.5475 2.67421 16.5475C2.80995 16.5475 2.97285 16.4751 3.1629 16.3303C3.67873 15.9231 4.1991 15.3439 4.72398 14.5928L5.1991 14.905C4.58371 15.8462 3.85973 16.638 3.02715 17.2805C2.41176 17.7602 1.82353 18 1.26244 18C0.891403 18 0.588235 17.8914 0.352941 17.6742C0.117647 17.448 0 17.1674 0 16.8326C0 16.4977 0.113122 15.9412 0.339367 15.1629L2.10407 9.08145C2.39367 8.08597 2.53846 7.46154 2.53846 7.20814C2.53846 7.00905 2.46606 6.84615 2.32127 6.71946C2.18552 6.59276 1.99548 6.52941 1.75113 6.52941C1.55204 6.52941 1.14027 6.57919 0.515837 6.67873V6.14932L5.1991 5.38914Z" fill="#5F5C6B"/>
</svg>
