<svg width="18" height="14" viewBox="0 0 18 14" fill="none" xmlns="http://www.w3.org/2000/svg">
<path d="M15.956 5.72727V0.636364C15.956 0.467589 15.8889 0.305728 15.7696 0.186387C15.6502 0.0670454 15.4884 0 15.3196 0H2.59233C2.42356 0 2.26169 0.0670454 2.14235 0.186387C2.02301 0.305728 1.95597 0.467589 1.95597 0.636364V5.72727C1.44964 5.72727 0.964059 5.92841 0.606035 6.28643C0.248011 6.64446 0.046875 7.13004 0.046875 7.63636V14H1.47869V12.7273H16.4332V14H17.8651V7.63636C17.8651 7.13004 17.6639 6.64446 17.3059 6.28643C16.9479 5.92841 16.4623 5.72727 15.956 5.72727ZM8.3196 5.72727H3.54688V4.45455C3.54688 4.28577 3.61392 4.12391 3.73326 4.00457C3.8526 3.88523 4.01446 3.81818 4.18324 3.81818H7.68324C7.85201 3.81818 8.01387 3.88523 8.13321 4.00457C8.25256 4.12391 8.3196 4.28577 8.3196 4.45455V5.72727ZM9.59233 4.45455C9.59233 4.28577 9.65937 4.12391 9.77872 4.00457C9.89806 3.88523 10.0599 3.81818 10.2287 3.81818H13.7287C13.8975 3.81818 14.0593 3.88523 14.1787 4.00457C14.298 4.12391 14.3651 4.28577 14.3651 4.45455V5.72727H9.59233V4.45455Z" fill="white"/>
</svg>
