<svg width="27" height="17" viewBox="0 0 27 17" fill="none" xmlns="http://www.w3.org/2000/svg">
<path d="M22.3469 0.0244394C21.6329 0.0972874 20.9358 0.287512 20.2839 0.58744L5.00485 7.39944C4.55185 7.60244 4.23885 7.36944 3.81685 7.05544C3.08185 6.51544 1.99385 5.75144 1.66085 5.49344C1.13485 5.09044 -0.169149 5.33944 0.190851 6.14944L2.09685 10.4304C2.72285 11.8304 5.97685 11.4964 11.6599 8.96244C12.1428 8.74644 12.7719 8.45544 13.3159 8.21244L11.8779 15.8684C11.6929 16.6114 11.8829 16.8204 12.1279 16.7124L12.9719 16.3374C13.4079 16.1424 14.0119 15.4644 14.3159 14.8054L18.4409 5.89944C22.5509 3.97944 26.3119 2.05344 26.0339 1.43144C25.7069 0.693439 24.2829 -0.155561 22.3469 0.0244394ZM7.12785 1.05544C6.75785 1.04944 6.43985 1.08444 6.22185 1.18144L5.37785 1.55544C5.13385 1.66544 5.16985 1.94544 5.84685 2.30544L9.25285 4.36844L13.0339 2.68044L8.25385 1.21244C7.88722 1.11015 7.50848 1.05667 7.12785 1.05544Z" fill="white"/>
</svg>
