<svg width="22" height="18" viewBox="0 0 22 18" fill="none" xmlns="http://www.w3.org/2000/svg">
<path d="M15.2222 17V15.2222C15.2222 14.2792 14.8476 13.3748 14.1808 12.708C13.514 12.0412 12.6097 11.6666 11.6667 11.6666H4.55555C3.61256 11.6666 2.70819 12.0412 2.0414 12.708C1.3746 13.3748 1 14.2792 1 15.2222V17" stroke="#8C8A97" stroke-width="1.5" stroke-linecap="round" stroke-linejoin="round"/>
<path d="M8.11024 8.11111C10.0739 8.11111 11.6658 6.51923 11.6658 4.55555C11.6658 2.59188 10.0739 1 8.11024 1C6.14656 1 4.55469 2.59188 4.55469 4.55555C4.55469 6.51923 6.14656 8.11111 8.11024 8.11111Z" stroke="#8C8A97" stroke-width="1.5" stroke-linecap="round" stroke-linejoin="round"/>
<path d="M20.5553 17V15.2222C20.5548 14.4344 20.2925 13.6691 19.8099 13.0465C19.3272 12.4239 18.6515 11.9792 17.8887 11.7822" stroke="#8C8A97" stroke-width="1.5" stroke-linecap="round" stroke-linejoin="round"/>
<path d="M14.334 1.1156C15.0988 1.31142 15.7767 1.75622 16.2608 2.37988C16.7449 3.00353 17.0076 3.77056 17.0076 4.56004C17.0076 5.34953 16.7449 6.11656 16.2608 6.74021C15.7767 7.36386 15.0988 7.80867 14.334 8.00449" stroke="#8C8A97" stroke-width="1.5" stroke-linecap="round" stroke-linejoin="round"/>
</svg>
