<svg width="104" height="16" viewBox="0 0 104 16" fill="none" xmlns="http://www.w3.org/2000/svg">
<path d="M8 0L10.3982 4.69921L15.6085 5.52786L11.8803 9.26079L12.7023 14.4721L8 12.08L3.29772 14.4721L4.11969 9.26079L0.391548 5.52786L5.60184 4.69921L8 0Z" fill="#5F5C6B"/>
<path d="M30 0L32.3982 4.69921L37.6085 5.52786L33.8803 9.26079L34.7023 14.4721L30 12.08L25.2977 14.4721L26.1197 9.26079L22.3915 5.52786L27.6018 4.69921L30 0Z" fill="#5F5C6B"/>
<path d="M52 0L54.3982 4.69921L59.6085 5.52786L55.8803 9.26079L56.7023 14.4721L52 12.08L47.2977 14.4721L48.1197 9.26079L44.3915 5.52786L49.6018 4.69921L52 0Z" fill="#5F5C6B"/>
<path d="M74 0L76.3982 4.69921L81.6085 5.52786L77.8803 9.26079L78.7023 14.4721L74 12.08L69.2977 14.4721L70.1197 9.26079L66.3915 5.52786L71.6018 4.69921L74 0Z" fill="#5F5C6B"/>
<path d="M96 0L98.3982 4.69921L103.608 5.52786L99.8803 9.26079L100.702 14.4721L96 12.08L91.2977 14.4721L92.1197 9.26079L88.3915 5.52786L93.6018 4.69921L96 0Z" fill="#C6C5CE"/>
</svg>
