<svg width="17" height="16" viewBox="0 0 17 16" fill="none" xmlns="http://www.w3.org/2000/svg">
<path d="M4.86319 8C4.86319 10.2088 6.65999 12.0056 8.86879 12.0056C11.0776 12.0056 12.8744 10.2088 12.8744 8C12.8744 5.7912 11.0776 3.9944 8.86879 3.9944C6.65999 3.9944 4.86319 5.7912 4.86319 8ZM8.06719 13.6H9.66719V16H8.06719V13.6ZM8.06719 0H9.66719V2.4H8.06719V0ZM0.867188 7.2H3.26719V8.8H0.867188V7.2ZM14.4672 7.2H16.8672V8.8H14.4672V7.2Z" fill="white"/>
<path d="M3.77573 14.2224L2.64453 13.0912L4.34133 11.3944L5.47253 12.5256L3.77573 14.2224Z" fill="white"/>
<path d="M12.2617 3.47519L13.9593 1.77759L15.0905 2.90879L13.3929 4.60639L12.2617 3.47519Z" fill="white"/>
<path d="M4.34133 4.60724L2.64453 2.90964L3.77653 1.77844L5.47253 3.47604L4.34133 4.60724Z" fill="white"/>
<path d="M15.0905 13.0912L13.9593 14.2224L12.2617 12.5248L13.3929 11.3936L15.0905 13.0912Z" fill="white"/>
</svg>
