<svg width="58" height="41" viewBox="0 0 58 41" fill="none" xmlns="http://www.w3.org/2000/svg">
<path d="M13.8 40.672C4.98933 40.672 0.584 33.9333 0.584 20.456C0.584 6.97867 4.98933 0.239998 13.8 0.239998C22.6107 0.239998 27.016 6.97867 27.016 20.456C27.016 33.9333 22.6107 40.672 13.8 40.672ZM13.8 37.76C17.0853 37.76 19.512 36.4533 21.08 33.84C22.6853 31.2267 23.488 27.6427 23.488 23.088V17.824C23.488 13.2693 22.6853 9.68533 21.08 7.072C19.512 4.45866 17.0853 3.152 13.8 3.152C10.4773 3.152 8.032 4.45866 6.464 7.072C4.896 9.68533 4.112 13.2693 4.112 17.824V23.088C4.112 27.6427 4.896 31.2267 6.464 33.84C8.032 36.4533 10.4773 37.76 13.8 37.76ZM44.4661 18.048C47.1541 18.048 49.2448 17.3947 50.7381 16.088C52.2688 14.744 53.0341 13.008 53.0341 10.88V10.152C53.0341 7.94933 52.3061 6.25067 50.8501 5.056C49.3941 3.86133 47.5275 3.264 45.2501 3.264C42.9728 3.264 41.1435 3.73067 39.7621 4.664C38.4181 5.56 37.3355 6.792 36.5141 8.36L33.9941 6.568C34.4421 5.74667 35.0021 4.96266 35.6741 4.216C36.3461 3.432 37.1301 2.74133 38.0261 2.144C38.9595 1.54666 40.0235 1.08 41.2181 0.743998C42.4128 0.407998 43.7755 0.239998 45.3061 0.239998C46.9115 0.239998 48.4048 0.463998 49.7861 0.911999C51.1675 1.36 52.3621 2.01333 53.3701 2.872C54.3781 3.69333 55.1621 4.72 55.7221 5.952C56.3195 7.14666 56.6181 8.50933 56.6181 10.04C56.6181 12.6907 55.8901 14.7627 54.4341 16.256C52.9781 17.7493 51.1675 18.7573 49.0021 19.28V19.504C50.1595 19.6907 51.2421 20.0453 52.2501 20.568C53.2581 21.0533 54.1355 21.7067 54.8821 22.528C55.6661 23.3493 56.2821 24.3387 56.7301 25.496C57.1781 26.6533 57.4021 27.96 57.4021 29.416C57.4021 31.096 57.1035 32.6453 56.5061 34.064C55.9088 35.4453 55.0501 36.6213 53.9301 37.592C52.8475 38.5627 51.5221 39.328 49.9541 39.888C48.4235 40.4107 46.7061 40.672 44.8021 40.672C41.6661 40.672 39.1275 40.0747 37.1861 38.88C35.2448 37.648 33.6581 36.1173 32.4261 34.288L34.9461 32.384C36.0288 34.064 37.3168 35.3707 38.8101 36.304C40.3408 37.2 42.3195 37.648 44.7461 37.648C47.5835 37.648 49.8048 36.9573 51.4101 35.576C53.0155 34.1573 53.8181 32.216 53.8181 29.752V28.856C53.8181 26.392 53.0341 24.4693 51.4661 23.088C49.8981 21.6693 47.6581 20.96 44.7461 20.96H39.8181V18.048H44.4661Z" fill="#8C8A97"/>
</svg>
