<svg width="61" height="41" viewBox="0 0 61 41" fill="none" xmlns="http://www.w3.org/2000/svg">
<path d="M13.8 40.672C4.98933 40.672 0.584 33.9333 0.584 20.456C0.584 6.97867 4.98933 0.239998 13.8 0.239998C22.6107 0.239998 27.016 6.97867 27.016 20.456C27.016 33.9333 22.6107 40.672 13.8 40.672ZM13.8 37.76C17.0853 37.76 19.512 36.4533 21.08 33.84C22.6853 31.2267 23.488 27.6427 23.488 23.088V17.824C23.488 13.2693 22.6853 9.68533 21.08 7.072C19.512 4.45866 17.0853 3.152 13.8 3.152C10.4773 3.152 8.032 4.45866 6.464 7.072C4.896 9.68533 4.112 13.2693 4.112 17.824V23.088C4.112 27.6427 4.896 31.2267 6.464 33.84C8.032 36.4533 10.4773 37.76 13.8 37.76ZM34.4981 40V37.032H45.9221V3.376H45.6421L34.8901 12.952L32.9861 10.824L44.1301 0.911999H49.2821V37.032H60.0341V40H34.4981Z" fill="#8C8A97"/>
</svg>
