<svg width="60" height="41" viewBox="0 0 60 41" fill="none" xmlns="http://www.w3.org/2000/svg">
<path d="M13.8 40.672C4.98933 40.672 0.584 33.9333 0.584 20.456C0.584 6.97867 4.98933 0.239998 13.8 0.239998C22.6107 0.239998 27.016 6.97867 27.016 20.456C27.016 33.9333 22.6107 40.672 13.8 40.672ZM13.8 37.76C17.0853 37.76 19.512 36.4533 21.08 33.84C22.6853 31.2267 23.488 27.6427 23.488 23.088V17.824C23.488 13.2693 22.6853 9.68533 21.08 7.072C19.512 4.45866 17.0853 3.152 13.8 3.152C10.4773 3.152 8.032 4.45866 6.464 7.072C4.896 9.68533 4.112 13.2693 4.112 17.824V23.088C4.112 27.6427 4.896 31.2267 6.464 33.84C8.032 36.4533 10.4773 37.76 13.8 37.76ZM59.0261 40H33.9381V36.584L47.6021 23.48C49.4315 21.688 50.9248 19.8587 52.0821 17.992C53.2395 16.088 53.8181 14.1467 53.8181 12.168V11.104C53.8181 8.78933 53.1461 6.904 51.8021 5.448C50.4581 3.992 48.4421 3.264 45.7541 3.264C43.1408 3.264 41.1435 3.91733 39.7621 5.224C38.3808 6.53066 37.3728 8.22933 36.7381 10.32L33.7141 9.2C34.0875 8.00533 34.5915 6.86667 35.2261 5.784C35.8608 4.70133 36.6635 3.74933 37.6341 2.928C38.6421 2.10666 39.8181 1.45333 41.1621 0.967999C42.5061 0.482665 44.0741 0.239998 45.8661 0.239998C47.6955 0.239998 49.3195 0.519998 50.7381 1.08C52.1941 1.60266 53.4075 2.34933 54.3781 3.32C55.3861 4.29067 56.1328 5.46667 56.6181 6.848C57.1408 8.192 57.4021 9.704 57.4021 11.384C57.4021 12.8027 57.2155 14.1467 56.8421 15.416C56.4688 16.648 55.9461 17.8427 55.2741 19C54.6021 20.12 53.7808 21.24 52.8101 22.36C51.8395 23.4427 50.7755 24.5253 49.6181 25.608L37.5781 37.032H59.0261V40Z" fill="#8C8A97"/>
</svg>
